<svg width="520" height="520" viewBox="0 0 520 520" fill="none" xmlns="http://www.w3.org/2000/svg"><circle cx="260" cy="260" r="180" stroke="#22283A"/><circle cx="260" cy="260" r="132" stroke="#1A2030" stroke-dasharray="5 7"/><ellipse cx="260" cy="260" rx="208" ry="92" transform="rotate(-27 260 260)" stroke="url(#a)" stroke-width="1.5"/><ellipse cx="260" cy="260" rx="205" ry="85" transform="rotate(31 260 260)" stroke="#1C2232"/><circle cx="260" cy="260" r="76" fill="url(#b)" stroke="#6172BC"/><circle cx="260" cy="260" r="48" fill="#0E121B" stroke="#313B5C"/><path d="M234 267c15-36 47-42 65-28-20-4-38 5-44 25 15-9 30-8 44 2-23 29-52 26-65-3Z" fill="url(#c)"/><circle cx="105" cy="167" r="8" fill="#9BAEFF"/><circle cx="409" cy="350" r="6" fill="#AC7CFF"/><circle cx="384" cy="119" r="4" fill="#68E0B1"/><defs><linearGradient id="a" x1="70" y1="150" x2="445" y2="363" gradientUnits="userSpaceOnUse"><stop stop-color="#738BFF" stop-opacity="0"/><stop offset=".5" stop-color="#91A8FF"/><stop offset="1" stop-color="#8B63FF" stop-opacity="0"/></linearGradient><radialGradient id="b"><stop stop-color="#293762"/><stop offset="1" stop-color="#111728"/></radialGradient><linearGradient id="c" x1="237" y1="235" x2="296" y2="281" gradientUnits="userSpaceOnUse"><stop stop-color="#C0CCFF"/><stop offset="1" stop-color="#936CFF"/></linearGradient></defs></svg>
